<?xml version="1.0" standalone="no"?>
<svg version="1.0" xmlns="http://www.w3.org/2000/svg"
 width="300.000000pt" height="300.000000pt" viewBox="0 0 300.000000 300.000000"
 preserveAspectRatio="xMidYMid meet">
<g transform="translate(0.000000,300.000000) scale(0.100000,-0.100000)"
fill="#000000" stroke="none">
<path d="M1255 2979 c-326 -59 -578 -190 -811 -423 -136 -136 -220 -254 -295
-410 -89 -190 -127 -336 -134 -511 -5 -119 -1 -108 30 85 21 136 58 263 108
375 43 98 87 178 99 183 4 2 8 9 8 14 0 11 63 99 104 147 106 121 248 251 275
251 5 0 11 4 13 8 6 17 114 84 204 127 164 79 316 121 524 145 52 6 96 13 99
15 8 8 -172 3 -224 -6z"/>
<path d="M1520 2987 c3 -3 28 -8 55 -11 178 -22 180 -23 278 -46 114 -26 313
-103 337 -131 3 -3 21 -11 40 -19 56 -23 229 -158 315 -245 105 -108 115 -119
167 -195 140 -206 218 -417 255 -690 18 -134 18 -135 21 -65 10 217 -89 517
-251 760 -81 121 -273 313 -396 395 -156 104 -350 188 -521 225 -72 15 -310
33 -300 22z"/>
<path d="M1387 2743 c-1 0 -45 -9 -97 -18 -101 -18 -123 -22 -127 -25 -2 -2
-6 -3 -10 -4 -73 -16 -237 -92 -328 -152 -293 -192 -491 -491 -550 -829 -17
-97 -22 -276 -11 -365 19 -142 95 -376 148 -452 10 -14 18 -28 18 -31 0 -24
136 -193 214 -266 55 -52 185 -152 225 -172 14 -8 28 -16 31 -19 3 -3 30 -16
60 -30 30 -14 58 -29 62 -35 4 -5 8 -7 8 -4 0 4 32 -4 71 -17 40 -13 76 -21
81 -18 21 13 30 65 28 174 -1 149 0 148 -128 142 -80 -3 -107 0 -154 16 -74
26 -108 60 -159 157 -50 96 -68 120 -121 162 l-41 33 29 0 c45 0 118 -53 170
-123 80 -108 150 -140 270 -125 83 10 129 32 144 69 7 16 30 43 51 60 22 17
39 35 39 40 0 15 -53 36 -110 44 -86 11 -219 59 -299 106 -186 111 -305 320
-305 539 0 77 3 91 33 150 20 38 63 95 104 137 l69 72 -8 48 c-10 61 -10 197
0 243 12 55 24 71 49 66 12 -2 40 -7 62 -12 49 -9 150 -53 225 -99 31 -19 65
-33 76 -30 10 2 48 11 84 21 92 24 363 22 475 -3 l80 -19 110 57 c138 71 224
98 254 80 8 -5 14 -64 17 -181 l5 -174 40 -45 c50 -57 116 -189 129 -260 25
-133 3 -286 -57 -404 -72 -144 -284 -274 -478 -294 -56 -5 -95 -24 -95 -46 0
-5 14 -25 31 -45 18 -20 40 -55 50 -77 18 -40 21 -71 35 -310 3 -60 10 -116
16 -122 18 -22 50 -14 153 37 160 80 307 199 417 340 33 41 65 82 71 90 20 25
94 171 116 230 29 75 68 223 77 290 10 80 7 275 -7 356 -6 38 -13 76 -14 84
-1 8 -5 22 -8 30 -3 8 -17 51 -32 95 -15 44 -36 97 -46 119 -10 21 -16 43 -12
49 3 6 2 7 -4 4 -5 -3 -18 11 -29 31 -52 101 -167 241 -274 336 -49 44 -210
156 -223 156 -3 0 -38 15 -79 34 -80 38 -254 91 -333 102 -43 6 -283 12 -288
7z m304 -39 c294 -49 576 -212 751 -432 75 -94 100 -135 150 -235 153 -309
168 -663 42 -980 -86 -215 -221 -392 -411 -536 -69 -53 -288 -169 -298 -159
-3 3 -10 75 -15 159 -16 254 -25 293 -88 356 -18 17 -32 34 -32 37 0 3 17 6
38 6 97 1 260 57 364 127 110 72 179 167 216 298 64 221 18 429 -132 599 -25
28 -26 34 -26 160 0 163 -8 233 -27 240 -39 15 -216 -47 -326 -115 -46 -28
-53 -30 -91 -20 -165 44 -390 42 -598 -5 -19 -4 -36 0 -56 14 -47 34 -173 94
-227 108 -27 8 -69 14 -91 14 l-41 0 -17 -58 c-26 -93 -30 -169 -12 -244 l15
-66 -67 -69 c-37 -37 -83 -97 -102 -133 -35 -64 -35 -67 -35 -185 1 -110 3
-127 33 -205 81 -214 240 -356 477 -425 50 -15 119 -30 155 -33 l65 -7 -40
-20 c-27 -14 -46 -33 -60 -61 -18 -37 -26 -42 -82 -57 -34 -10 -79 -17 -100
-17 -59 0 -134 40 -178 96 -99 125 -153 164 -225 164 -54 0 -65 -24 -24 -54
70 -51 106 -93 144 -170 46 -91 92 -145 146 -171 60 -28 153 -40 228 -29 l66
10 0 -142 0 -141 -79 27 c-421 148 -726 509 -802 948 -61 359 37 710 279 997
262 313 708 477 1113 409z"/>
<path d="M15 1370 c6 -180 44 -324 134 -516 135 -284 391 -548 670 -688 199
-101 435 -162 591 -154 63 3 62 3 -65 21 -200 28 -292 55 -470 134 -341 153
-619 455 -760 829 -30 78 -70 249 -81 339 -15 136 -23 151 -19 35z"/>
<path d="M2982 1465 c-1 -6 -9 -65 -18 -130 -44 -341 -177 -622 -402 -853
-124 -126 -189 -178 -323 -256 -51 -31 -188 -98 -204 -100 -5 -1 -23 -7 -40
-13 -98 -38 -222 -66 -345 -79 -118 -13 -126 -24 -15 -19 176 7 321 45 511
134 284 135 548 391 688 670 101 200 163 437 154 591 -2 36 -5 60 -6 55z"/>
</g>
</svg>
